#!OML:ASF F:\VICON\USERDATA\INSTALL\rory3\rory3.ASF
:FULLY-SPECIFIED
:DEGREES
687
root -9.58386 15.7788 -13.0842 -145.909 -56.478 -185.235
lowerback -11.3099 -4.2888 0.755395
upperback -15.1403 -7.57477 1.11122
thorax -9.95753 -4.58721 0.726469
lowerneck -6.45201 2.34622 -3.70127
upperneck 10.4192 3.29941 1.39119
head 4.52594 1.4982 1.32388
rclavicle 4.82674e-015 1.63997e-014
rhumerus -27.4352 -48.9868 -1.78435
rradius 11.4646
rwrist 52.0197
rhand 26.1941 5.5955
rfingers 7.12502
rthumb 50.2551 -15.4922
lclavicle 4.82674e-015 1.63997e-014
lhumerus 62.2657 -41.0669 16.5072
lradius 32.1407
lwrist -21.2436
lhand 18.4659 15.6636
lfingers 7.12502
lthumb 43.1033 39.8729
rfemur 283.373 -23.9413 -310.964
rtibia 50.4568
rfoot 139.513 -216.865
rtoes 43.3042
lfemur -13.2984 -3.70006 -19.8828
ltibia 38.5189
lfoot 128.634 -163.409
ltoes 42.7723
688
root -9.61514 15.8387 -13.1285 -146.12 -56.4128 -185.135
lowerback -11.0897 -4.16383 1.04828
upperback -15.4624 -7.5229 0.749551
thorax -10.5627 -4.64137 0.254474
lowerneck -5.47421 2.234 -2.94633
upperneck 10.0371 3.06084 1.07737
head 4.2107 1.39706 1.04271
rclavicle 1.09683e-013 -6.26172e-015
rhumerus -28.1582 -49.4701 -0.298504
rradius 11.534
rwrist 54.1795
rhand 25.9667 5.11176
rfingers 7.12502
rthumb 50.0472 -16.0861
lclavicle 1.09683e-013 -6.26172e-015
lhumerus 62.0022 -39.8324 17.5311
lradius 31.6667
lwrist -21.6419
lhand 19.2991 16.6962
lfingers 7.12502
lthumb 43.8816 40.6231
rfemur 284.724 -23.4267 -311.811
rtibia 49.5623
rfoot 138.544 -216.945
rtoes 43.9393
lfemur -13.2649 -3.57751 -19.695
ltibia 38.3382
lfoot 129.962 -163.277
ltoes 42.642
689
root -9.65152 15.9041 -13.1518 -146.814 -56.6044 -184.573
lowerback -10.6786 -3.94761 1.89754
upperback -15.7504 -7.34855 0.428514
thorax -11.3058 -4.68838 -0.456026
lowerneck -4.3762 2.13184 -1.94797
upperneck 9.5015 2.86025 0.450179
head 3.82775 1.31056 0.620444
rclavicle 6.58723e-014 -7.45443e-015
rhumerus -28.6366 -49.4081 1.09555
rradius 11.4743
rwrist 55.5618
rhand 25.1253 4.94958
rfingers 7.12502
rthumb 49.2762 -16.6451
lclavicle 6.58723e-014 -7.45443e-015
lhumerus 61.7857 -38.5074 19.2402
lradius 30.8889
lwrist -22.5606
lhand 19.6359 17.2753
lfingers 7.12502
lthumb 44.1957 41.0848
rfemur 286.086 -23.2353 -312.212
rtibia 48.6819
rfoot 138.023 -216.971
rtoes 44.1863
lfemur -13.3421 -2.19247 -19.0181
ltibia 38.3068
lfoot 132.665 -161.116
ltoes 40.841
690
root -9.67598 15.9589 -13.2057 -145.805 -55.8993 -185.696
lowerback -11.1611 -4.05878 0.589455
upperback -15.7796 -7.49004 0.318736
thorax -10.9156 -4.64307 0.073731
lowerneck -5.64599 2.16431 -3.01537
upperneck 10.5381 2.91663 1.56689
head 4.42248 1.33692 1.22416
rclavicle 2.95692e-015 0
rhumerus -28.0631 -50.3091 1.75765
rradius 11.4006
rwrist 56.9701
rhand 24.183 5.04682
rfingers 7.12502
rthumb 48.41 -16.9724
lclavicle 2.95692e-015 0
lhumerus 61.703 -36.6114 20.5341
lradius 30.149
lwrist -22.8447
lhand 18.6164 17.1772
lfingers 7.12502
lthumb 43.2441 41.3364
rfemur 287.438 -21.7102 -314.701
rtibia 47.8789
rfoot 136.178 -217.454
rtoes 45.1742
lfemur -13.6768 -3.04532 -19.9435
ltibia 38.3325
lfoot 132.915 -160.161
ltoes 39.2836
691
root -9.70267 16.007 -13.25 -145.302 -55.5651 -186.283
lowerback -11.3087 -4.10677 -0.042829
upperback -16.0168 -7.60859 0.210544
thorax -11.0611 -4.66932 0.30635
lowerneck -5.0639 2.23519 -2.56047
upperneck 10.232 2.97589 1.32198
head 4.2019 1.37413 1.04667
rclavicle -7.88181e-014 1.22253e-014
rhumerus -27.1676 -49.348 1.71885
rradius 11.6216
rwrist 56.8757
rhand 23.8272 4.73923
rfingers 7.12502
rthumb 48.0823 -17.4351
lclavicle -7.88181e-014 1.22253e-014
lhumerus 62.0811 -35.4198 20.8049
lradius 29.7684
lwrist -22.409
lhand 17.6339 17.2225
lfingers 7.12502
lthumb 42.3249 41.7027
rfemur 288.59 -20.7434 -316.292
rtibia 47.0967
rfoot 134.576 -217.367
rtoes 46.2349
lfemur -14.0186 -3.2502 -20.3463
ltibia 38.3988
lfoot 134.838 -157.646
ltoes 37.2301
692
root -9.73495 16.0554 -13.2878 -145.375 -55.7112 -186.219
lowerback -11.9823 -4.3234 -0.232938
upperback -15.7129 -7.80886 0.443611
thorax -10.2517 -4.72662 0.534828
lowerneck -5.24914 2.2591 -2.65385
upperneck 9.64498 3.05554 1.20913
head 4.02726 1.42027 1.02432
rclavicle -5.76476e-015 -3.45885e-014
rhumerus -25.9694 -49.5062 1.58347
rradius 11.8136
rwrist 56.6988
rhand 23.9128 3.90037
rfingers 7.12502
rthumb 48.1612 -18.2369
lclavicle -5.76476e-015 -3.45885e-014
lhumerus 61.7031 -32.9678 22.2022
lradius 29.6252
lwrist -23.1278
lhand 17.3388 16.9409
lfingers 7.12502
lthumb 42.0484 41.5147
rfemur 289.578 -20.3396 -316.897
rtibia 46.3731
rfoot 133.594 -217.251
rtoes 46.8495
lfemur -14.2791 -3.32337 -20.0884
ltibia 38.391
lfoot 135.776 -157.439
ltoes 37.384
693
root -9.76787 16.1063 -13.3236 -145.36 -55.7725 -186.31
lowerback -12.1097 -4.26261 -0.184184
upperback -15.9032 -7.79732 0.279635
thorax -10.4444 -4.75888 0.343861
lowerneck -4.65331 2.16869 -2.59888
upperneck 9.37989 2.90277 1.27344
head 3.81846 1.35064 1.01299
rclavicle 9.92681e-014 2.74323e-014
rhumerus -25.4242 -48.1296 1.89895
rradius 11.844
rwrist 55.9672
rhand 23.645 3.31656
rfingers 7.12502
rthumb 47.9143 -18.9361
lclavicle 9.92681e-014 2.74323e-014
lhumerus 61.8847 -31.7983 22.8763
lradius 29.5992
lwrist -23.3398
lhand 16.9743 16.9141
lfingers 7.12502
lthumb 41.7067 41.6017
rfemur 290.628 -19.772 -317.788
rtibia 45.6812
rfoot 132.5 -217.366
rtoes 47.4309
lfemur -14.4512 -3.40664 -19.9396
ltibia 38.3715
lfoot 135.508 -158.823
ltoes 37.6846
